<?xml version="1.0" encoding="UTF-8" standalone="no" ?>
<!DOCTYPE svg PUBLIC "-//W3C//DTD SVG 1.1//EN" "http://www.w3.org/Graphics/SVG/1.1/DTD/svg11.dtd">
<svg xmlns="http://www.w3.org/2000/svg" xmlns:xlink="http://www.w3.org/1999/xlink" version="1.1" width="70" height="70" viewBox="45.91 45.91 70 70" xml:space="preserve">
<desc>Created with Fabric.js 5.2.4</desc>
<defs>
</defs>
<g transform="matrix(1 0 0 1 35 35)" id="7c18208e-ce27-475f-b6f1-6e434fe1491e"  >
<rect style="stroke: none; stroke-width: 1; stroke-dasharray: none; stroke-linecap: butt; stroke-dashoffset: 0; stroke-linejoin: miter; stroke-miterlimit: 4; fill: rgb(255,255,255); fill-rule: nonzero; opacity: 1; visibility: hidden;" vector-effect="non-scaling-stroke"  x="-35" y="-35" rx="0" ry="0" width="70" height="70" />
</g>
<g transform="matrix(Infinity NaN NaN Infinity 0 0)" id="915d5abf-967d-4379-b14a-031aa3643447"  >
</g>
<g transform="matrix(0.16 0 0 0.22 80 80)"  >
<g style="" vector-effect="non-scaling-stroke"   >
		<g transform="matrix(1.33 0 0 1.33 -81 0)" id="path2"  >
<path style="stroke: none; stroke-width: 1; stroke-dasharray: none; stroke-linecap: butt; stroke-dashoffset: 0; stroke-linejoin: miter; stroke-miterlimit: 4; fill: rgb(27,25,24); fill-rule: evenodd; opacity: 1;" vector-effect="non-scaling-stroke"  transform=" translate(-100.26, -721.85)" d="M 163.9717 672.9308 L 68.9143 672.9308 L 36.5441 770.7662 L 131.7222 770.7662 z" stroke-linecap="round" />
</g>
		<g transform="matrix(1.33 0 0 1.33 -80.79 -0.05)" id="path4"  >
<path style="stroke: none; stroke-width: 1; stroke-dasharray: none; stroke-linecap: butt; stroke-dashoffset: 0; stroke-linejoin: miter; stroke-miterlimit: 4; fill: rgb(227,0,22); fill-rule: evenodd; opacity: 1;" vector-effect="non-scaling-stroke"  transform=" translate(-100.41, -721.81)" d="M 160.6501 675.3869 L 70.8388 675.3869 L 40.171400000000006 768.2297 L 130.08350000000002 768.2297 z" stroke-linecap="round" />
</g>
		<g transform="matrix(1.33 0 0 1.33 107.34 1.17)" id="path6"  >
<path style="stroke: none; stroke-width: 1; stroke-dasharray: none; stroke-linecap: butt; stroke-dashoffset: 0; stroke-linejoin: miter; stroke-miterlimit: 4; fill: rgb(27,25,24); fill-rule: evenodd; opacity: 1;" vector-effect="non-scaling-stroke"  transform=" translate(-241.51, -722.72)" d="M 198.9088 734.9631 C 198.235 736.4838000000001 197.80180000000001 737.9989 197.6082 739.5068 C 197.56920000000002 739.9509 197.5497 740.3765 197.5497 740.7836 C 197.5497 742.8769 198.0914 744.5588 199.1756 745.8299 C 200.304 747.1528 202.1429 748.209 204.6917 748.9983 C 209.4294 750.4653999999999 218.1991 751.1990999999999 231.0009 751.1990999999999 C 241.41310000000001 751.1990999999999 249.4604 750.8385999999999 255.143 750.1176999999999 C 258.7119 749.6649999999998 261.7248 748.9783999999999 264.1833 748.0568 C 267.6932 746.7415 270.4237 745.1959999999999 272.3748 743.4209 C 274.8361 741.1825 276.8248 738.0102999999999 278.3417 733.905 C 279.26800000000003 731.3976 279.7312 729.2686 279.7312 727.5187 C 279.7312 724.6912 278.3636 722.5879 275.6283 721.2094 C 272.5797 719.6723999999999 267.55010000000004 718.7618 260.5384 718.476 L 260.53880000000004 718.476 L 240.68880000000004 717.6738 C 237.35160000000005 717.5606 235.03530000000003 717.3252 233.73900000000003 716.9691 C 231.00320000000002 716.2168 229.63510000000002 714.6737 229.63510000000002 712.3398000000001 C 229.63510000000002 711.6137000000001 229.78400000000002 710.8195000000001 230.08120000000002 709.9579000000001 C 230.89860000000002 707.5926000000001 232.46930000000003 705.9197000000001 234.79370000000003 704.9396000000002 C 237.28260000000003 703.8901000000002 241.26710000000003 703.3651000000002 246.74800000000002 703.3651000000002 C 254.0027 703.3651000000002 258.4189 703.8045000000002 259.9972 704.6833000000003 C 261.97920000000005 705.6805000000003 262.9707 707.1565000000003 262.9707 709.1105000000002 C 262.9707 709.5113000000002 262.9241 709.9279000000002 262.83090000000004 710.3592000000002 L 262.83140000000003 710.3592000000002 L 283.8303 710.3592000000002 C 284.92260000000005 707.6763000000002 285.4685 705.3990000000002 285.4685 703.5278000000002 C 285.4689 702.0579000000001 285.11990000000003 700.8125000000002 284.4228 699.7910000000002 C 283.8307 698.9242000000002 282.9173 698.1234000000002 281.6823 697.3887000000002 L 281.6823 697.3887000000002 L 281.6343 697.3601000000002 C 280.756 696.8375000000002 280.0213 696.4614000000003 279.4302 696.2317000000002 C 278.41540000000003 695.8380000000002 277.10630000000003 695.5118000000001 275.5023 695.2540000000001 C 271.3305 694.5835000000002 264.2651 694.2483000000001 254.3066 694.2483000000001 C 245.8222 694.2483000000001 239.1976 694.4532 234.4318 694.8631 C 228.8966 695.3396 224.43810000000002 696.1851 221.05610000000001 697.4001000000001 C 217.6185 698.6346000000001 214.8195 700.4187000000001 212.6602 702.7512 C 210.517 705.067 208.7028 708.2460000000001 207.2187 712.2884 C 206.43640000000002 714.4188 206.04510000000002 716.2215 206.04510000000002 717.6971 C 206.0456 720.3000999999999 207.4488 722.276 210.25680000000003 723.6246 C 213.66590000000002 725.2623 219.3865 726.2533 227.4182 726.5966 L 227.4182 726.5966 L 244.92860000000002 727.3461 C 248.3539 727.4925 250.73870000000002 727.7541 252.08350000000002 728.1302 C 254.8829 728.9133999999999 256.2824 730.476 256.2824 732.8175 C 256.2824 733.5227 256.1407 734.2878 255.8563 735.1129 L 255.8563 735.1129 L 255.8425 735.1524 L 255.8268 735.1913999999999 C 254.8201 737.6864999999999 253.1353 739.4301999999999 250.7724 740.4231 C 248.1413 741.5292 243.86010000000002 742.0817999999999 237.9293 742.0817999999999 C 232.3556 742.0817999999999 228.33460000000002 741.9267 225.8656 741.6157999999999 C 224.3011 741.4188999999999 223.1475 741.0926999999999 222.4057 740.6370999999999 L 222.4057 740.6370999999999 L 222.3667 740.6132999999999 C 220.6819 739.6883999999999 219.8392 738.3397999999999 219.8392 736.5679999999999 C 219.8392 736.0667999999998 219.912 735.5317999999999 220.05700000000002 734.9630999999998 L 220.05700000000002 734.9630999999998 z" stroke-linecap="round" />
</g>
		<g transform="matrix(1.33 0 0 1.33 -21.68 1.19)" id="path8"  >
<path style="stroke: none; stroke-width: 1; stroke-dasharray: none; stroke-linecap: butt; stroke-dashoffset: 0; stroke-linejoin: miter; stroke-miterlimit: 4; fill: rgb(27,25,24); fill-rule: evenodd; opacity: 1;" vector-effect="non-scaling-stroke"  transform=" translate(-144.75, -722.74)" d="M 100.8014 751.1991 L 121.0975 751.1991 L 122.0461 748.5314000000001 L 127.89179999999999 731.9730000000001 L 147.0129 731.9730000000001 C 154.8082 731.9730000000001 158.7057 734.1856 158.7057 738.6104 C 158.7057 739.5491000000001 156.7921 745.5489 156.4074 746.6925 L 156.4074 746.6925 L 154.891 751.1991 L 174.49849999999998 751.1991 L 175.47039999999998 748.5314000000001 L 179.03549999999998 738.5144 C 179.52479999999997 737.1715 179.76919999999998 736.0692 179.76919999999998 735.2066 C 179.76969999999997 734.3154 179.0845 733.711 178.4948 732.7723 C 176.6811 729.8835 167.8967 727.2742999999999 167.8572 727.6509 L 167.8572 727.6509 L 167.9105 727.1435 C 167.86200000000002 727.6057000000001 178.3298 725.822 184.418 719.214 L 184.418 719.214 L 184.4865 719.1394 C 185.4237 718.1270000000001 186.3068 716.8178 187.13660000000002 715.2115 C 189.4016 710.8276 189.19180000000003 705.6358 186.5807 701.4335 C 183.9696 697.2316999999999 179.3151 694.5978 174.2298 694.4431999999999 L 171.04180000000002 694.3466999999999 C 169.49640000000002 694.2995999999999 167.84770000000003 694.2759 166.09680000000003 694.2759 L 166.09680000000003 694.2759 L 120.37510000000003 694.2759 L 101.71770000000004 748.5314 z M 130.7559 721.9693000000001 L 137.89929999999998 702.7146000000001 L 158.00809999999998 702.7146000000001 C 161.37859999999998 702.7146000000001 163.89649999999997 703.0584000000001 165.5614 703.7451000000001 C 168.0027 704.7522000000001 169.2234 706.4713 169.2234 708.9027000000001 C 169.2234 710.1557000000001 168.8611 711.6465000000001 168.1368 713.3755000000001 C 166.9356 716.5463000000001 165.0426 718.8013000000001 162.45759999999999 720.1394000000001 C 160.1009 721.3592000000001 156.76549999999997 721.9693000000001 152.45149999999998 721.9693000000001 L 152.45199999999997 721.9693000000001 z" stroke-linecap="round" />
</g>
</g>
</g>
</svg>